<?xml version="1.0" encoding="utf-8"?>
<!-- Generator: Adobe Illustrator 20.1.0, SVG Export Plug-In . SVG Version: 6.00 Build 0)  -->
<svg version="1.1" id="レイヤー_1" xmlns="http://www.w3.org/2000/svg" xmlns:xlink="http://www.w3.org/1999/xlink" x="0px"
	 y="0px" viewBox="0 0 28 39.6" style="enable-background:new 0 0 28 39.6;" xml:space="preserve">
<style type="text/css">
	.st0{fill:#F76A39;}
</style>
<path id="icon_goods" class="st0" d="M26.8,12.3c-0.1-0.4-0.4-0.6-0.8-0.6h-6.5c1.2-4.3,0.9-7.5-0.7-9.5c-1.3-1.5-3.1-2.3-5.1-2.2
	h-0.1c-1.9-0.1-3.8,0.7-5,2.2C7,4.2,6.8,7.4,8,11.7h-6c-0.4,0-0.7,0.2-0.8,0.6L0,38.9c0,0.4,0.3,0.7,0.7,0.7c0,0,0,0,0,0h26.4
	c0.4,0,0.7-0.3,0.8-0.7c0,0,0,0,0,0L26.8,12.3z M10,3.3c0.8-0.9,2-1.5,3.2-1.5c0,0,0.1,0,0.1,0c0.1,0,0.3,0,0.4,0c0.2,0,0.4,0,0.5,0
	c0,0,0.1,0,0.1,0c1.2,0,2.4,0.6,3.2,1.5c1.3,1.6,1.3,4.5,0.2,8.4H9.8C8.7,7.8,8.8,4.9,10,3.3L10,3.3z M19.6,26c-0.2,0-0.4,0-0.7-0.1
	c1.4,2.7,0.4,6.1-2.3,7.6c-2.7,1.4-6.1,0.4-7.6-2.3c-0.4-0.8-0.7-1.7-0.6-2.6c0-0.9,0.2-1.8,0.7-2.6C8.8,26,8.6,26,8.4,26
	c-2,0-3.6-1.6-3.6-3.6s1.6-3.6,3.6-3.6c2,0,3.6,1.6,3.6,3.6c0,0.3-0.1,0.6-0.1,0.9c1.4-0.6,3-0.6,4.4,0c-0.1-0.3-0.1-0.6-0.1-0.9
	c0-2,1.6-3.6,3.6-3.6s3.6,1.6,3.6,3.6S21.6,26,19.6,26C19.6,26,19.6,26,19.6,26L19.6,26z"/>
</svg>
