<svg xmlns="http://www.w3.org/2000/svg" viewBox="0 0 48 48"><defs><style>.cls-1{fill:#eea301;}</style></defs><title>icon_attraction</title><g id="_15-アトラクション" data-name="15-アトラクション"><path class="cls-1" d="M24.7,30.08l-.3,0-.31,0,.31,0Zm-1.8,1.6v4.88h3V31.68a5.62,5.62,0,0,1-3,0Zm0,14.49a1.49,1.49,0,1,0,3,0V38.55h-3Zm0-17a6.3,6.3,0,0,1,1-.09,6,6,0,0,1,2,.35V23.61h-3ZM24.4,1.57A1.49,1.49,0,0,0,22.9,3.06V22.61h3V3.06A1.49,1.49,0,0,0,24.4,1.57Z"/><path class="cls-1" d="M20.87,28.39a4.39,4.39,0,0,0,3.6,1.72,4.53,4.53,0,0,0,3.14-1.35,4.28,4.28,0,0,0,1.27-3.11v-2h-9v1.93A4.48,4.48,0,0,0,20.87,28.39Z"/><path class="cls-1" d="M44.74,20.58l-.22-.45a3.74,3.74,0,0,1-.22-.58,5.52,5.52,0,0,1-.15-.6c0-.19-.08-.42-.14-.71s-.12-.51-.15-.66-.08-.4-.15-.73q-.29-1.52-.47-2.15a5.72,5.72,0,0,0-.57-1.32c-.27-.45-.6-.55-1-.28a6.14,6.14,0,0,0-1.51,1.77,7,7,0,0,0-1.26.25,21.49,21.49,0,0,0-2.07.76,8.35,8.35,0,0,0-2.74,2,14.23,14.23,0,0,0-2.42,3.39,3.09,3.09,0,0,1-1,1.16,2.49,2.49,0,0,1-.79.4v3a5.76,5.76,0,0,1-1.08,3.44,5.89,5.89,0,0,1-4.9,2.59A5.69,5.69,0,0,1,19.68,30a6,6,0,0,1-1.76-4.32V23.61h-.29a6.9,6.9,0,0,0-4.15,1.21,15.43,15.43,0,0,1-3.85-.45l0,0c.23-.41.12-.92-.35-1.54a6.34,6.34,0,0,0-2-1.7,6.21,6.21,0,0,0-2.42-.88c-.76-.08-1.25.07-1.48.48a1.38,1.38,0,0,0-.35,1.57q1.68,4.5,8.3,5.26a6.07,6.07,0,0,0-.49,2.58,6.21,6.21,0,0,0,.94,3.34,14.69,14.69,0,0,1-2.67,5.92L6.52,42a2.15,2.15,0,0,0-.69,1.62,2.31,2.31,0,0,0,.69,1.67A2.11,2.11,0,0,0,8.1,46a2.11,2.11,0,0,0,1.58-.66l8.59-8.75H30.32a6,6,0,0,0,.94-.1l7,8.69A2.09,2.09,0,0,0,40,46a2.19,2.19,0,0,0,2.27-2.07,2.31,2.31,0,0,0-.49-1.72l-.49-.6-.1-.15a17.15,17.15,0,0,1-1.41-2,24,24,0,0,1-2.22-5,13.32,13.32,0,0,1-.77-6.19A4.74,4.74,0,0,1,37.13,27a3.29,3.29,0,0,1,.47-.81c.15-.17.42-.44.82-.84s.69-.68.89-.88q5.43,4.15,6.91,2.68a2.8,2.8,0,0,0,.72-1,3.69,3.69,0,0,0-.35-1.74A28.33,28.33,0,0,0,44.74,20.58Zm-2.32.72a1.32,1.32,0,0,1-1,.42,1.37,1.37,0,0,1-1-.42,1.3,1.3,0,0,1-.42-1,1.35,1.35,0,0,1,.42-1,1.37,1.37,0,0,1,1-.42,1.32,1.32,0,0,1,1,.42,1.37,1.37,0,0,1,.42,1A1.32,1.32,0,0,1,42.42,21.3Z"/><path class="cls-1" d="M6.16,9.67h0a3,3,0,0,0,3,2.21,3,3,0,0,0,3-2.21h0a3.1,3.1,0,0,0,5.95,0h0a3.1,3.1,0,0,0,5.95,0h0a3.1,3.1,0,0,0,5.95,0h0a3.1,3.1,0,0,0,5.95,0h0a3.1,3.1,0,0,0,5.95,0h0a3,3,0,0,0,3,2.21,2.72,2.72,0,0,0,2.79-3V7.68H48c0-.17,0-.24,0-.28a1.68,1.68,0,0,0-1.27-1.68L24.51.05a1.66,1.66,0,0,0-.83,0L1.47,5.72A1.68,1.68,0,0,0,.2,7.39s0,.12,0,.28H0V8.9a3.33,3.33,0,0,0,3.19,3A3,3,0,0,0,6.16,9.67Z"/></g></svg>