<svg width="493" height="142" viewBox="0 0 493 142" fill="none" xmlns="http://www.w3.org/2000/svg">
<path d="M3 0V114.5" stroke="#86BDF0" stroke-width="5"/>
<path d="M27.1 32.025V10.75H40.625V13.475H30.4V29.3H41.475V32.025H27.1ZM47.5 10.25V32.875H44.2V10.25H47.5ZM72.0367 10.625V13.35H64.2367C64.5367 15.1833 65.4867 16.9 67.0867 18.5C68.7034 20.1 70.7784 21.4167 73.3117 22.45L71.4867 24.75C70.1201 24.2667 68.4701 23.2833 66.5367 21.8C64.6201 20.3 63.2284 18.8167 62.3617 17.35C61.5617 18.8 60.2034 20.2583 58.2867 21.725C56.3701 23.1917 54.6951 24.2 53.2617 24.75L51.4867 22.45C54.0034 21.4167 56.0617 20.1 57.6617 18.5C59.2617 16.9 60.2201 15.1833 60.5367 13.35H52.7117V10.625H72.0367ZM73.2367 29.425V32.15H51.5117V29.425H73.2367ZM77.6049 31.775V10.75H80.9049V29.05H92.0299V31.775H77.6049ZM97.7549 10.25V32.875H94.4549V10.25H97.7549ZM132.012 10.25V26.225H128.712V18.75H126.162V26.225H122.862V10.375H126.162V15.925H128.712V10.25H132.012ZM109.987 23.825V15.7H117.287V13.15H109.987V10.5H120.512V18.35H113.212V21.175H121.012V23.825H109.987ZM111.662 32.625V25.525H115.087V29.9H132.262V32.625H111.662ZM136.993 23.3V10.625H155.768V13.35H140.293V20.575H156.043V23.3H136.993ZM157.243 29.425V32.15H135.518V29.425H157.243ZM177.336 10.375V32.75H174.036V22.175H171.686C171.652 23.575 171.544 24.825 171.361 25.925C171.177 27.0083 170.886 28.0417 170.486 29.025C170.086 30.0083 169.502 30.7667 168.736 31.3C167.986 31.8333 167.077 32.1 166.011 32.1C164.861 32.1 163.886 31.7917 163.086 31.175C162.302 30.575 161.711 29.7167 161.311 28.6C160.927 27.4833 160.661 26.325 160.511 25.125C160.361 23.925 160.286 22.55 160.286 21C160.286 19.7833 160.327 18.6833 160.411 17.7C160.494 16.7167 160.661 15.7333 160.911 14.75C161.161 13.75 161.486 12.9167 161.886 12.25C162.302 11.5667 162.861 11.0167 163.561 10.6C164.261 10.1833 165.077 9.975 166.011 9.975C167.061 9.975 167.952 10.225 168.686 10.725C169.436 11.225 170.011 11.9333 170.411 12.85C170.827 13.7667 171.127 14.7417 171.311 15.775C171.511 16.8083 171.636 18 171.686 19.35H174.036V10.375H177.336ZM182.761 10.25V32.875H179.461V10.25H182.761ZM167.136 13.225C166.819 12.8583 166.436 12.675 165.986 12.675C165.536 12.675 165.152 12.8583 164.836 13.225C164.519 13.5917 164.277 14.0333 164.111 14.55C163.944 15.05 163.811 15.7167 163.711 16.55C163.627 17.3667 163.569 18.0917 163.536 18.725C163.519 19.3583 163.511 20.1167 163.511 21C163.511 21.9 163.519 22.675 163.536 23.325C163.569 23.9583 163.627 24.6917 163.711 25.525C163.811 26.3417 163.944 27.0083 164.111 27.525C164.277 28.0417 164.519 28.4833 164.836 28.85C165.152 29.2167 165.536 29.4 165.986 29.4C166.536 29.4 166.986 29.15 167.336 28.65C167.702 28.15 167.961 27.4417 168.111 26.525C168.261 25.5917 168.361 24.725 168.411 23.925C168.461 23.1083 168.486 22.1333 168.486 21C168.486 20.1333 168.469 19.375 168.436 18.725C168.419 18.075 168.361 17.35 168.261 16.55C168.177 15.7333 168.044 15.0667 167.861 14.55C167.694 14.0333 167.452 13.5917 167.136 13.225ZM200.961 29.6L198.761 31.5C197.777 30.75 196.719 29.5833 195.586 28C194.452 26.4 193.627 24.8667 193.111 23.4C192.761 24.8833 192.019 26.5 190.886 28.25C189.769 29.9833 188.727 31.2583 187.761 32.075L185.361 30.3C187.344 28.5333 188.811 26.3333 189.761 23.7C190.727 21.05 191.211 18.4083 191.211 15.775V10.475H194.586V15.925C194.586 18.125 195.152 20.5167 196.286 23.1C197.436 25.6667 198.994 27.8333 200.961 29.6ZM207.636 10.25V32.875H204.336V20.7H198.411V17.975H204.336V10.25H207.636ZM220.818 32.875V26.975H237.143V26.15H220.818V23.625H240.443V29.5H224.118V30.35H240.818V32.875H220.818ZM240.668 10.375V12.975H232.743C233.343 13.8583 234.434 14.5833 236.018 15.15C237.618 15.7 239.584 16.0667 241.918 16.25L240.618 18.65C238.651 18.5667 236.734 18.2417 234.868 17.675C233.001 17.1083 231.609 16.275 230.693 15.175C229.659 16.275 228.201 17.1167 226.318 17.7C224.434 18.2667 222.543 18.6083 220.643 18.725L219.343 16.25C221.643 16.1 223.593 15.7417 225.193 15.175C226.793 14.5917 227.893 13.8583 228.493 12.975H220.593V10.375H240.668ZM241.743 19.625V22.35H219.518V19.625H241.743ZM244.736 13.475V10.75H257.436V12.55C257.436 16.35 256.469 19.9917 254.536 23.475C252.602 26.9583 249.961 29.825 246.611 32.075L244.286 30.1C247.102 28.3833 249.436 25.9917 251.286 22.925C253.136 19.8417 254.044 16.6917 254.011 13.475H244.736ZM265.386 10.25V32.875H262.086V10.25H265.386ZM281.16 29.975L278.71 31.475C278.076 30.725 277.368 29.6167 276.585 28.15C275.801 26.6667 275.176 25.225 274.71 23.825C274.36 25.1917 273.785 26.6917 272.985 28.325C272.201 29.9583 271.485 31.1583 270.835 31.925L268.26 30.575C269.776 28.6583 270.935 26.3833 271.735 23.75C272.551 21.1 272.96 18.525 272.96 16.025V10.475H276.235V16.025C276.235 18.175 276.685 20.55 277.585 23.15C278.485 25.7333 279.676 28.0083 281.16 29.975ZM286.135 10.375V32.75H282.835V20.9H278.71V18.175H282.835V10.375H286.135ZM291.76 10.25V32.875H288.46V10.25H291.76ZM316.26 16.675C316.26 17.875 315.968 18.9417 315.385 19.875C314.801 20.7917 314.018 21.5167 313.035 22.05C312.051 22.5667 310.976 22.9583 309.81 23.225C308.643 23.4917 307.418 23.625 306.135 23.625C304.835 23.625 303.593 23.4833 302.41 23.2C301.243 22.9167 300.168 22.5083 299.185 21.975C298.218 21.425 297.443 20.7 296.86 19.8C296.276 18.8833 295.985 17.8417 295.985 16.675C295.985 15.525 296.268 14.5 296.835 13.6C297.418 12.6833 298.193 11.95 299.16 11.4C300.143 10.85 301.226 10.4417 302.41 10.175C303.593 9.89167 304.835 9.75 306.135 9.75C307.868 9.75 309.476 9.98333 310.96 10.45C312.443 10.9167 313.693 11.6917 314.71 12.775C315.743 13.8583 316.26 15.1583 316.26 16.675ZM312.885 16.675C312.885 15.8417 312.66 15.1333 312.21 14.55C311.776 13.9667 311.185 13.5417 310.435 13.275C309.701 12.9917 308.985 12.7917 308.285 12.675C307.601 12.5583 306.885 12.5 306.135 12.5C305.385 12.5 304.66 12.5583 303.96 12.675C303.26 12.7917 302.543 12.9917 301.81 13.275C301.076 13.5417 300.485 13.9667 300.035 14.55C299.585 15.1333 299.36 15.8417 299.36 16.675C299.36 17.3583 299.51 17.9583 299.81 18.475C300.126 18.9917 300.51 19.4 300.96 19.7C301.426 20 301.976 20.2417 302.61 20.425C303.26 20.6083 303.86 20.7333 304.41 20.8C304.96 20.85 305.535 20.875 306.135 20.875C306.718 20.875 307.285 20.85 307.835 20.8C308.385 20.7333 308.976 20.6083 309.61 20.425C310.243 20.2417 310.793 20 311.26 19.7C311.726 19.4 312.11 18.9917 312.41 18.475C312.726 17.9583 312.885 17.3583 312.885 16.675ZM316.985 29.425V32.15H295.26V29.425H299.385V24.6H302.685V29.425H309.585V24.6H312.885V29.425H316.985ZM324.828 10.775L324.403 25.95H321.603L321.178 10.775H324.828ZM324.853 28.275V31.925H321.178V28.275H324.853Z" fill="#86BDF0"/>
<path d="M39.22 72.94H37.42V67.75H35.935V80.56H37.42V74.365H39.22V72.94ZM26.29 69.58H31.75V71.335C31.75 75.625 29.77 78.34 26.29 78.355V79.765C30.64 79.765 33.265 76.405 33.265 71.305V68.215H26.29V69.58ZM52.5237 73.015L52.9587 71.83L47.6487 70.195C47.8437 69.865 47.9787 69.52 48.0537 69.13H52.6137V67.9H41.5737V69.13H46.5537C46.0587 70.765 43.5537 71.695 41.3637 71.755V73C43.3737 72.955 45.4737 72.34 46.7937 71.185L52.5237 73.015ZM47.8287 74.14V72.475H46.3587V74.14H40.7037V75.37H53.4987V74.14H47.8287ZM41.4837 77.86H51.0987V80.575H52.5987V76.63H41.4837V77.86ZM68.9774 72.82H67.2074V67.75H65.7224V80.56H67.2074V74.245H68.9774V72.82ZM61.8824 76.405H63.3824V68.245H56.0474V69.625H61.8824V76.405ZM59.3174 78.4V72.97H57.8174V78.4H55.5824V79.795H60.4724C62.2274 79.795 63.7424 79.63 64.6574 79.255V77.86C63.7424 78.25 62.1824 78.4 60.4574 78.4H59.3174ZM83.7702 68.83H80.1702V67.525H78.6702V68.83H75.0702V69.985H83.7702V68.83ZM88.5102 70.855H86.7102V67.75H85.2252V75.385H86.7102V72.265H88.5102V70.855ZM79.4202 75.28C81.5352 75.28 83.1702 74.44 83.1702 73C83.1702 71.515 81.5352 70.66 79.4202 70.66C77.2902 70.66 75.6552 71.515 75.6552 73C75.6552 74.44 77.2902 75.28 79.4202 75.28ZM79.4202 71.755C80.8452 71.755 81.7602 72.28 81.7602 73C81.7602 73.69 80.8452 74.185 79.4202 74.185C77.9802 74.185 77.0802 73.69 77.0802 73C77.0802 72.28 77.9802 71.755 79.4202 71.755ZM76.0002 80.395H86.7102V76.09H76.0002V80.395ZM77.4702 77.275H85.2402V79.21H77.4702V77.275ZM101.034 67.75V80.56H102.384V67.75H101.034ZM98.2889 72.76H96.7139C96.7289 72.34 96.7289 71.92 96.7289 71.47V68.215H93.8339V69.475H95.3639V71.62C95.3639 75.73 94.8989 78.205 93.3689 78.475V79.765C95.4989 79.525 96.3839 77.545 96.6389 74.125H98.2889V80.335H99.6389V67.825H98.2889V72.76ZM93.2039 68.215H90.1289V69.475H91.8389L91.8539 71.425C91.8839 75.055 91.5689 77.755 90.1289 78.025V79.315C92.6639 79.015 93.2489 75.955 93.2189 71.29L93.2039 68.215ZM106.853 78.37H105.353L104.873 81.76H106.103L106.853 78.37ZM127.005 72.94H125.205V67.75H123.72V80.56H125.205V74.365H127.005V72.94ZM117.84 68.05C115.59 68.05 114.015 69.94 114.015 74.005C114.015 78.07 115.59 79.96 117.84 79.96C120.075 79.96 121.65 78.07 121.65 74.005C121.65 69.94 120.075 68.05 117.84 68.05ZM117.84 78.595C116.505 78.595 115.5 77.26 115.5 74.005C115.5 70.765 116.505 69.415 117.84 69.415C119.16 69.415 120.165 70.765 120.165 74.005C120.165 77.26 119.16 78.595 117.84 78.595ZM138.958 80.56H140.458V67.75H138.958V80.56ZM132.913 79.96C135.178 79.96 136.783 78.07 136.783 74.005C136.783 69.94 135.178 68.05 132.913 68.05C130.633 68.05 129.028 69.94 129.028 74.005C129.028 78.07 130.633 79.96 132.913 79.96ZM132.913 78.595C131.548 78.595 130.513 77.26 130.513 74.005C130.513 70.765 131.548 69.415 132.913 69.415C134.248 69.415 135.298 70.765 135.298 74.005C135.298 77.26 134.248 78.595 132.913 78.595ZM144.282 71.995H155.397V70.855H145.767V69.04H155.247V67.9H144.282V71.995ZM143.367 74.245H156.162V73.09H143.367V74.245ZM144.252 80.41H155.502V79.3H145.707V78.4H155.277V75.34H144.222V76.45H153.822V77.35H144.252V80.41ZM171.641 72.82H169.871V67.75H168.386V80.56H169.871V74.245H171.641V72.82ZM164.546 76.405H166.046V68.245H158.711V69.625H164.546V76.405ZM161.981 78.4V72.97H160.481V78.4H158.246V79.795H163.136C164.891 79.795 166.406 79.63 167.321 79.255V77.86C166.406 78.25 164.846 78.4 163.121 78.4H161.981ZM186.434 68.83H182.834V67.525H181.334V68.83H177.734V69.985H186.434V68.83ZM191.174 70.855H189.374V67.75H187.889V75.385H189.374V72.265H191.174V70.855ZM182.084 75.28C184.199 75.28 185.834 74.44 185.834 73C185.834 71.515 184.199 70.66 182.084 70.66C179.954 70.66 178.319 71.515 178.319 73C178.319 74.44 179.954 75.28 182.084 75.28ZM182.084 71.755C183.509 71.755 184.424 72.28 184.424 73C184.424 73.69 183.509 74.185 182.084 74.185C180.644 74.185 179.744 73.69 179.744 73C179.744 72.28 180.644 71.755 182.084 71.755ZM178.664 80.395H189.374V76.09H178.664V80.395ZM180.134 77.275H187.904V79.21H180.134V77.275ZM203.697 67.75V80.56H205.047V67.75H203.697ZM200.952 72.76H199.377C199.392 72.34 199.392 71.92 199.392 71.47V68.215H196.497V69.475H198.027V71.62C198.027 75.73 197.562 78.205 196.032 78.475V79.765C198.162 79.525 199.047 77.545 199.302 74.125H200.952V80.335H202.302V67.825H200.952V72.76ZM195.867 68.215H192.792V69.475H194.502L194.517 71.425C194.547 75.055 194.232 77.755 192.792 78.025V79.315C195.327 79.015 195.912 75.955 195.882 71.29L195.867 68.215ZM224.25 72.43H214.605V71.275H223.92V70.18H214.605V69.04H224.13V67.9H213.12V73.57H224.25V72.43ZM212.19 74.755V75.94H224.985V74.755H212.19ZM212.97 78.295H222.585V80.575H224.085V77.095H212.97V78.295ZM237.644 74.17H239.129V67.75H237.644V68.905H235.559V70.135H237.644V71.485H235.559V72.715H237.644V74.17ZM234.899 67.975H233.459V69.565H229.049V67.975H227.594V73.705H234.899V67.975ZM229.049 72.505V70.75H233.459V72.505H229.049ZM229.694 79.24V78.175H239.129V74.875H228.194V76.03H237.659V77.08H228.224V80.395H239.444V79.24H229.694ZM250.602 68.965H247.002V67.525H245.502V68.965H241.902V70.18H250.602V68.965ZM253.542 71.26V67.75H252.057V77.35H253.542V72.685H255.342V71.26H253.542ZM246.252 76.15C248.382 76.15 250.032 75.205 250.032 73.525C250.032 71.845 248.382 70.9 246.252 70.9C244.122 70.9 242.457 71.845 242.457 73.525C242.457 75.205 244.122 76.15 246.252 76.15ZM246.252 72.04C247.692 72.04 248.607 72.67 248.607 73.525C248.607 74.395 247.692 75.01 246.252 75.01C244.812 75.01 243.897 74.395 243.897 73.525C243.897 72.67 244.812 72.04 246.252 72.04ZM244.332 76.885H242.832V80.395H253.887V79.075H244.332V76.885ZM273.075 69.955V67.75H271.59V73.93H273.075V71.35H274.875V69.955H273.075ZM270.66 72.865V71.62C269.835 71.98 268.365 72.19 266.625 72.19H263.43V67.99H261.93V73.435H266.535C268.35 73.435 269.88 73.21 270.66 72.865ZM263.85 78.07H273.075V74.635H262.35V75.805H271.605V76.96H262.38V80.395H273.39V79.225H263.85V78.07ZM282.749 72.37C285.839 72.37 288.374 71.74 288.374 70.03C288.374 68.335 285.839 67.705 282.749 67.705C279.659 67.705 277.124 68.335 277.124 70.03C277.124 71.74 279.659 72.37 282.749 72.37ZM282.749 71.23C280.514 71.23 278.654 70.885 278.654 70.03C278.654 69.19 280.514 68.83 282.749 68.83C284.984 68.83 286.844 69.19 286.844 70.03C286.844 70.885 284.984 71.23 282.749 71.23ZM276.359 74.32H289.154V73.165H276.359V74.32ZM277.244 80.41H288.494V79.3H278.699V78.4H288.269V75.34H277.214V76.45H286.814V77.35H277.244V80.41ZM306.467 77.275H307.952V67.75H306.467V70.195H303.377V71.545H306.467V77.275ZM300.137 72.46L303.752 75.4L304.682 74.35L300.707 71.17C301.067 70.195 301.247 69.1 301.247 67.96L299.762 67.87C299.732 70.93 298.322 73.645 295.922 74.08V75.475C297.752 75.235 299.207 74.08 300.137 72.46ZM298.562 79.06V76.315H297.047V80.395H308.222V79.06H298.562ZM324.165 72.94H322.365V67.75H320.88V80.56H322.365V74.365H324.165V72.94ZM316.305 68.125L314.79 68.065C314.775 73.45 313.44 77.89 310.875 78.295V79.795C312.87 79.645 314.415 77.98 315.33 75.19L318.63 79.765L319.83 78.91L315.795 73.45C316.125 71.905 316.29 70.12 316.305 68.125ZM329.519 67.72H328.049V69.745H325.364V71.08H332.204V69.745H329.519V67.72ZM336.584 67.75V72.91H334.529V67.825H333.149V80.335H334.529V74.305H336.584V80.56H337.964V67.75H336.584ZM328.844 72.085C327.134 72.085 325.874 73.465 325.874 76.015C325.874 78.565 327.134 79.945 328.844 79.945C330.569 79.945 331.829 78.565 331.829 76.015C331.829 73.465 330.569 72.085 328.844 72.085ZM328.844 78.64C327.929 78.64 327.254 77.695 327.254 76.015C327.254 74.335 327.929 73.39 328.844 73.39C329.774 73.39 330.464 74.335 330.464 76.015C330.464 77.695 329.774 78.64 328.844 78.64ZM346.663 71.905L352.378 74.47L352.993 73.225L347.413 70.75C347.608 70.345 347.758 69.895 347.848 69.43H352.573V68.08H341.263V69.43H346.273C345.733 71.56 343.558 72.925 340.948 73.135V74.515C343.258 74.365 345.373 73.435 346.663 71.905ZM353.323 75.895H340.528V77.275H346.153V80.86H347.653V77.275H353.323V75.895ZM366.312 67.75V80.56H367.722V67.75H366.312ZM363.087 72.13H361.062V73.54H363.087V80.335H364.497V67.825H363.087V72.13ZM359.667 68.125L358.242 68.065C358.227 73.78 357.537 77.635 355.512 78.295V79.795C357.222 79.435 358.347 77.995 358.992 75.43L361.242 79.63L362.487 78.97L359.382 73.33C359.562 71.845 359.667 70.12 359.667 68.125ZM380.14 78.58V75.1C381.595 74.44 382.45 73.3 382.45 71.875C382.45 69.505 380.17 67.975 376.675 67.975C373.18 67.975 370.9 69.505 370.9 71.875C370.9 73.315 371.755 74.44 373.225 75.115V78.58H370.285V79.945H383.08V78.58H380.14ZM372.475 71.875C372.475 70.315 374.155 69.325 376.675 69.325C379.195 69.325 380.89 70.315 380.89 71.875C380.89 73.405 379.195 74.41 376.675 74.41C374.155 74.41 372.475 73.405 372.475 71.875ZM374.71 75.58C375.31 75.7 375.97 75.76 376.675 75.76C377.395 75.76 378.055 75.7 378.655 75.58V78.58H374.71V75.58Z" fill="#666666"/>
</svg>
