<svg width="632" height="105" viewBox="0 0 632 105" fill="none" xmlns="http://www.w3.org/2000/svg">
<path d="M2.94176 42.975V28.035H17.6568V23.13H0.601758V18.225H40.6068V23.13H23.5968V28.035H38.2668V42.975H2.94176ZM20.8518 7.38V2.475H38.0418V16.605H32.1018V7.38H20.8518ZM1.32176 7.38V2.475H18.2868V16.605H12.3468V7.38H1.32176ZM8.88176 32.805V38.205H32.3268V32.805H8.88176ZM83.6145 2.25V18.27H88.4745V23.355H83.6145V42.975H77.6745V2.25H83.6145ZM47.1195 8.055V3.15H71.3745V28.8H65.4345V8.055H47.1195ZM74.9295 36.54V41.445H45.3645V36.54H53.1495V20.655H59.0895V36.54H74.9295ZM109.211 22.23C109.211 19.26 110.306 16.815 112.496 14.895C114.686 12.945 117.641 11.97 121.361 11.97C125.081 11.97 128.036 12.945 130.226 14.895C132.416 16.815 133.511 19.26 133.511 22.23C133.511 25.23 132.416 27.705 130.226 29.655C128.036 31.605 125.081 32.58 121.361 32.58C117.641 32.58 114.686 31.62 112.496 29.7C110.306 27.75 109.211 25.26 109.211 22.23ZM145.931 2.25V42.975H139.991V2.25H145.931ZM135.176 5.625V10.44H107.501V5.625H118.121V1.26H124.061V5.625H135.176ZM137.021 36.09V40.995H107.681V36.09H137.021ZM114.971 22.23C114.971 23.85 115.496 25.215 116.546 26.325C117.626 27.405 119.231 27.945 121.361 27.945C123.491 27.945 125.096 27.405 126.176 26.325C127.256 25.215 127.796 23.85 127.796 22.23C127.796 20.67 127.256 19.335 126.176 18.225C125.096 17.115 123.491 16.56 121.361 16.56C119.261 16.56 117.671 17.115 116.591 18.225C115.511 19.335 114.971 20.67 114.971 22.23ZM191.246 34.965C191.246 36.705 190.811 38.16 189.941 39.33C189.071 40.53 187.796 41.445 186.116 42.075C184.436 42.735 182.576 43.185 180.536 43.425C178.526 43.695 176.156 43.83 173.426 43.83C170.726 43.83 168.341 43.68 166.271 43.38C164.231 43.11 162.371 42.645 160.691 41.985C159.041 41.355 157.766 40.44 156.866 39.24C155.996 38.07 155.561 36.645 155.561 34.965C155.561 33.255 155.996 31.8 156.866 30.6C157.766 29.4 159.041 28.47 160.691 27.81C162.371 27.15 164.231 26.685 166.271 26.415C168.341 26.115 170.726 25.965 173.426 25.965C176.156 25.965 178.526 26.1 180.536 26.37C182.576 26.64 184.436 27.105 186.116 27.765C187.796 28.395 189.071 29.31 189.941 30.51C190.811 31.71 191.246 33.195 191.246 34.965ZM185.036 34.92C185.036 33.39 184.166 32.31 182.426 31.68C180.716 31.05 177.716 30.735 173.426 30.735C169.106 30.735 166.076 31.05 164.336 31.68C162.626 32.31 161.771 33.39 161.771 34.92C161.771 36.45 162.626 37.515 164.336 38.115C166.076 38.745 169.106 39.06 173.426 39.06C177.716 39.06 180.716 38.745 182.426 38.115C184.166 37.485 185.036 36.42 185.036 34.92ZM153.986 22.635V2.7H178.376V22.635H153.986ZM159.926 7.47V17.865H172.436V7.47H159.926ZM190.706 2.25V10.26H195.341V15.345H190.706V24.615H184.766V2.25H190.706ZM237.381 9.045C237.381 10.575 236.916 11.88 235.986 12.96C235.056 14.04 233.721 14.865 231.981 15.435C230.241 16.005 228.321 16.425 226.221 16.695C224.151 16.935 221.766 17.055 219.066 17.055C206.826 17.055 200.706 14.385 200.706 9.045C200.706 3.585 206.826 0.854999 219.066 0.854999C231.276 0.854999 237.381 3.585 237.381 9.045ZM231.396 9C231.396 6.69 227.286 5.535 219.066 5.535C210.816 5.535 206.691 6.69 206.691 9C206.691 10.23 207.711 11.1 209.751 11.61C211.791 12.12 214.896 12.375 219.066 12.375C223.176 12.375 226.251 12.12 228.291 11.61C230.361 11.1 231.396 10.23 231.396 9ZM201.381 42.975V32.22H230.766V30.6H201.381V26.055H236.706V36.765H207.321V38.43H237.381V42.975H201.381ZM239.046 18.855V23.76H199.041V18.855H239.046ZM285.87 22.5L282.045 26.145C280.515 25.305 278.7 23.895 276.6 21.915C274.53 19.935 272.985 18.12 271.965 16.47C270.885 18.69 269.295 20.88 267.195 23.04C265.095 25.2 263.25 26.715 261.66 27.585L257.61 24.255C260.73 22.515 263.355 20.055 265.485 16.875C267.645 13.695 268.725 10.71 268.725 7.92V7.605H259.41V2.7H285.015V7.605H274.755V8.01C274.755 10.38 275.82 12.915 277.95 15.615C280.11 18.285 282.75 20.58 285.87 22.5ZM262.245 42.525V29.34H268.41V37.62H298.695V42.525H262.245ZM298.02 2.25V30.555H292.08V16.155H283.215V11.25H292.08V2.25H298.02ZM317.976 15.255C321.906 15.255 324.966 16.545 327.156 19.125C329.346 21.675 330.441 24.915 330.441 28.845C330.441 32.745 329.346 35.97 327.156 38.52C324.966 41.1 321.906 42.39 317.976 42.39C313.986 42.39 310.896 41.115 308.706 38.565C306.516 36.015 305.421 32.775 305.421 28.845C305.421 24.915 306.516 21.675 308.706 19.125C310.926 16.545 314.016 15.255 317.976 15.255ZM341.916 2.25V18.72H347.001V23.805H341.916V42.975H335.976V2.25H341.916ZM317.931 20.07C316.281 20.07 314.916 20.55 313.836 21.51C312.756 22.44 312.021 23.535 311.631 24.795C311.271 26.025 311.091 27.375 311.091 28.845C311.091 30.315 311.271 31.68 311.631 32.94C312.021 34.17 312.756 35.25 313.836 36.18C314.916 37.11 316.281 37.575 317.931 37.575C320.271 37.575 321.996 36.72 323.106 35.01C324.246 33.27 324.816 31.23 324.816 28.89C324.816 27.81 324.696 26.775 324.456 25.785C324.246 24.795 323.886 23.865 323.376 22.995C322.866 22.095 322.146 21.39 321.216 20.88C320.286 20.34 319.191 20.07 317.931 20.07ZM330.891 7.02V11.925H304.836V7.02H315.006V1.26H320.946V7.02H330.891ZM353.481 42.525V30.465H359.646V37.62H389.031V42.525H353.481ZM390.696 22.725V27.63H350.691V22.725H390.696ZM353.031 18.405V2.475H359.196V13.5H388.581V18.405H353.031ZM412.5 41.445V3.15H436.845V8.055H418.44V36.54H438.375V41.445H412.5ZM449.22 2.25V42.975H443.28V2.25H449.22ZM493.386 2.925V7.83H479.346C479.886 11.13 481.596 14.22 484.476 17.1C487.386 19.98 491.121 22.35 495.681 24.21L492.396 28.35C489.936 27.48 486.966 25.71 483.486 23.04C480.036 20.34 477.531 17.67 475.971 15.03C474.531 17.64 472.086 20.265 468.636 22.905C465.186 25.545 462.171 27.36 459.591 28.35L456.396 24.21C460.926 22.35 464.631 19.98 467.511 17.1C470.391 14.22 472.116 11.13 472.686 7.83H458.601V2.925H493.386ZM495.546 36.765V41.67H456.441V36.765H495.546ZM503.409 40.995V3.15H509.349V36.09H529.374V40.995H503.409ZM539.679 2.25V42.975H533.739V2.25H539.679ZM586.5 2.25V31.005H580.56V17.55H575.97V31.005H570.03V2.475H575.97V12.465H580.56V2.25H586.5ZM546.855 26.685V12.06H559.995V7.47H546.855V2.7H565.8V16.83H552.66V21.915H566.7V26.685H546.855ZM549.87 42.525V29.745H556.035V37.62H586.95V42.525H549.87ZM595.466 25.74V2.925H629.261V7.83H601.406V20.835H629.756V25.74H595.466ZM631.916 36.765V41.67H592.811V36.765H631.916Z" fill="#86BDF0"/>
<path d="M53.1649 78V87.912H48.5169C48.0969 81.528 45.2969 78.56 41.4609 78.56C37.2609 78.56 34.3209 82.088 34.3209 89.676C34.3209 97.264 37.2609 100.792 41.4609 100.792C45.4649 100.792 48.3489 97.516 48.5729 90.516H53.1649V101.912H55.9369V78H53.1649ZM41.4609 98.244C38.9689 98.244 37.0929 95.752 37.0929 89.676C37.0929 83.628 38.9689 81.108 41.4609 81.108C43.9249 81.108 45.8009 83.628 45.8009 89.676C45.8009 95.752 43.9249 98.244 41.4609 98.244ZM62.9345 89.368H83.7105V87.184H65.6785V84.888H83.3745V78.28H62.9345V80.464H80.6585V82.76H62.9345V89.368ZM61.1985 93.82H85.0825V91.58H61.1985V93.82ZM62.8505 101.632H83.8505V99.336H65.6785V95.696H62.8505V101.632ZM109.328 78V101.912H111.96V78H109.328ZM103.56 87.968H100.368C100.088 81.444 98.1841 78.56 94.8521 78.56C91.2401 78.56 89.2801 81.948 89.2801 89.676C89.2801 97.404 91.2401 100.792 94.8521 100.792C98.3241 100.792 100.228 97.684 100.396 90.6H103.56V101.492H106.164V78.14H103.56V87.968ZM94.8521 98.272C92.8641 98.272 91.9121 95.556 91.9121 89.676C91.9121 83.796 92.8641 81.08 94.8521 81.08C96.8401 81.08 97.7641 83.796 97.7641 89.676C97.7641 95.556 96.8401 98.272 94.8521 98.272ZM139.734 78H137.074V96.172H139.734V78ZM127.022 86.372H131.166V95.752H133.798V78.14H131.166V83.768H127.554C127.582 83.488 127.582 83.18 127.582 82.872V78.588H117.278V80.94H124.894V83.012C124.894 87.464 121.786 89.984 117.278 90.04V92.476C121.87 92.448 125.65 90.32 127.022 86.372ZM121.814 99.084V94.156H118.986V101.604H140.322V99.084H121.814ZM166.507 89.004V86.54H175.663V84.3H157.687V80.52H175.383V78.28H154.915V86.54H163.763V89.004H153.207V91.244H177.091V89.004H166.507ZM165.135 93.232C159.423 93.232 154.607 94.324 154.607 97.6C154.607 100.876 159.423 101.996 165.135 101.996C170.847 101.996 175.663 100.876 175.663 97.6C175.663 94.324 170.847 93.232 165.135 93.232ZM165.135 99.812C161.243 99.812 157.519 99.252 157.519 97.6C157.519 95.976 161.243 95.416 165.135 95.416C169.027 95.416 172.751 95.976 172.751 97.6C172.751 99.252 169.027 99.812 165.135 99.812ZM200.525 78V90.992H203.297V78H200.525ZM189.465 85.42L196.745 90.152L198.173 88.108L190.613 83.236C191.201 81.752 191.509 80.128 191.509 78.392L188.737 78.224C188.709 83.096 185.881 87.128 181.345 87.94V90.46C184.845 89.984 187.701 88.108 189.465 85.42ZM183.025 101.604H203.297V92.308H183.025V101.604ZM185.797 94.66H200.525V99.28H185.797V94.66ZM212.45 97.824H209.65L208.754 104.152H211.05L212.45 97.824ZM250.067 87.688H246.707V78H243.935V101.912H246.707V90.348H250.067V87.688ZM232.959 78.56C228.759 78.56 225.819 82.088 225.819 89.676C225.819 97.264 228.759 100.792 232.959 100.792C237.131 100.792 240.071 97.264 240.071 89.676C240.071 82.088 237.131 78.56 232.959 78.56ZM232.959 98.244C230.467 98.244 228.591 95.752 228.591 89.676C228.591 83.628 230.467 81.108 232.959 81.108C235.423 81.108 237.299 83.628 237.299 89.676C237.299 95.752 235.423 98.244 232.959 98.244ZM272.381 101.912H275.181V78H272.381V101.912ZM261.097 100.792C265.325 100.792 268.321 97.264 268.321 89.676C268.321 82.088 265.325 78.56 261.097 78.56C256.841 78.56 253.845 82.088 253.845 89.676C253.845 97.264 256.841 100.792 261.097 100.792ZM261.097 98.244C258.549 98.244 256.617 95.752 256.617 89.676C256.617 83.628 258.549 81.108 261.097 81.108C263.589 81.108 265.549 83.628 265.549 89.676C265.549 95.752 263.589 98.244 261.097 98.244ZM300.966 78V101.912H303.598V78H300.966ZM295.198 87.968H292.006C291.726 81.444 289.822 78.56 286.49 78.56C282.878 78.56 280.918 81.948 280.918 89.676C280.918 97.404 282.878 100.792 286.49 100.792C289.962 100.792 291.866 97.684 292.034 90.6H295.198V101.492H297.802V78.14H295.198V87.968ZM286.49 98.272C284.502 98.272 283.55 95.556 283.55 89.676C283.55 83.796 284.502 81.08 286.49 81.08C288.478 81.08 289.402 83.796 289.402 89.676C289.402 95.556 288.478 98.272 286.49 98.272ZM331.372 78H328.712V96.172H331.372V78ZM318.66 86.372H322.804V95.752H325.436V78.14H322.804V83.768H319.192C319.22 83.488 319.22 83.18 319.22 82.872V78.588H308.916V80.94H316.532V83.012C316.532 87.464 313.424 89.984 308.916 90.04V92.476C313.508 92.448 317.288 90.32 318.66 86.372ZM313.452 99.084V94.156H310.624V101.604H331.96V99.084H313.452ZM356.129 86.848L367.021 90.992L367.973 88.584L357.557 84.748C357.865 84.076 358.117 83.376 358.257 82.648H367.329V80.128H358.145V77.412H355.289V80.128H346.217V82.648H355.261C354.281 85.924 350.641 88.248 345.601 88.612V91.16C350.165 90.908 353.889 89.34 356.129 86.848ZM368.729 93.456H344.845V96.032H355.345V102.472H358.173V96.032H368.729V93.456ZM392.359 78V83.348H387.459C386.787 80.352 384.099 78.252 380.235 78.252C375.699 78.252 372.815 81.08 372.815 84.888C372.815 88.696 375.699 91.524 380.235 91.524C384.323 91.524 387.067 89.2 387.543 85.924H392.359V92.28H395.131V78H392.359ZM380.235 89.2C377.491 89.2 375.587 87.548 375.587 84.888C375.587 82.228 377.491 80.576 380.235 80.576C382.951 80.576 384.855 82.228 384.855 84.888C384.855 87.548 382.951 89.2 380.235 89.2ZM374.859 96.004H392.303V101.912H395.131V93.596H374.859V96.004ZM412.32 86.624C418.088 86.624 422.82 85.448 422.82 82.256C422.82 79.092 418.088 77.916 412.32 77.916C406.552 77.916 401.82 79.092 401.82 82.256C401.82 85.448 406.552 86.624 412.32 86.624ZM412.32 84.496C408.148 84.496 404.676 83.852 404.676 82.256C404.676 80.688 408.148 80.016 412.32 80.016C416.492 80.016 419.964 80.688 419.964 82.256C419.964 83.852 416.492 84.496 412.32 84.496ZM400.392 90.264H424.276V88.108H400.392V90.264ZM402.044 101.632H423.044V99.56H404.76V97.88H422.624V92.168H401.988V94.24H419.908V95.92H402.044V101.632ZM451.945 83.656V86.092H456.593V95.78H459.365V78H456.593V83.656H451.945ZM445.281 87.044L452.029 92.168L453.597 90.152L446.261 84.692C446.597 83.544 446.821 82.312 446.877 81.024H452.897V78.616H437.637V81.024H444.077C443.825 85.812 441.333 89.256 437.329 89.816V92.364C440.857 92 443.657 90.04 445.281 87.044ZM441.837 99.112V93.988H439.009V101.604H459.869V99.112H441.837ZM471.851 77.944H469.107V81.724H464.095V84.216H476.863V81.724H471.851V77.944ZM485.039 78V87.632H481.203V78.14H478.627V101.492H481.203V90.236H485.039V101.912H487.615V78H485.039ZM470.591 86.092C467.399 86.092 465.047 88.668 465.047 93.428C465.047 98.188 467.399 100.764 470.591 100.764C473.811 100.764 476.163 98.188 476.163 93.428C476.163 88.668 473.811 86.092 470.591 86.092ZM470.591 98.328C468.883 98.328 467.623 96.564 467.623 93.428C467.623 90.292 468.883 88.528 470.591 88.528C472.327 88.528 473.615 90.292 473.615 93.428C473.615 96.564 472.327 98.328 470.591 98.328ZM493.969 92.98H514.997V90.404H496.797V81.444H514.717V78.868H493.969V92.98ZM492.401 100.764H516.285V98.16H492.401V100.764ZM539.718 78V91.216H542.49V78H539.718ZM521.266 83.628V90.88H530.198C533.586 90.88 536.386 90.46 537.842 89.816V87.548C536.302 88.248 533.558 88.64 530.31 88.64H524.01V85.812H535.406V78.588H521.21V80.828H532.662V83.628H521.266ZM539.746 94.716H524.962V92.532H522.218V101.604H542.49V92.532H539.746V94.716ZM524.962 99.364V96.9H539.746V99.364H524.962ZM567.492 101.94L570.264 101.912V78H567.492V101.94ZM549.32 100.484H559.092C561.388 100.484 563.824 100.036 565.28 99.308V96.76C563.824 97.46 561.36 97.936 559.092 97.936H552.148V78.728H549.32V100.484ZM600.726 87.688H597.366V78H594.594V101.912H597.366V90.348H600.726V87.688ZM579.67 97.964V81.388H590.646V78.868H576.842V100.484H586.194C588.49 100.484 591.066 100.064 592.522 99.336V96.816C591.066 97.516 588.602 97.964 586.334 97.964H579.67Z" fill="#666666"/>
</svg>
