<svg width="472" height="148" viewBox="0 0 472 148" fill="none" xmlns="http://www.w3.org/2000/svg">
<path d="M469.021 1L468 147" stroke="#86BDF0" stroke-width="5"/>
<path d="M21.875 13.25V17.7H24.45V20.525H21.875V25.675H18.575V13.25H21.875ZM15.65 22.7L13.525 24.75C12.6417 24.25 11.6333 23.4833 10.5 22.45C9.38333 21.4 8.525 20.3417 7.925 19.275C7.39167 20.575 6.575 21.8583 5.475 23.125C4.39167 24.3917 3.38333 25.2917 2.45 25.825L0.175 23.95C1.94167 22.8167 3.38333 21.3 4.5 19.4C5.61667 17.4833 6.175 15.675 6.175 13.975V13.225H9.525V13.925C9.525 15.425 10.0833 16.975 11.2 18.575C12.3167 20.1583 13.8 21.5333 15.65 22.7ZM22.3 31.35C22.3 32.3167 22.0583 33.1333 21.575 33.8C21.0917 34.4667 20.3833 34.9833 19.45 35.35C18.5333 35.7167 17.5083 35.975 16.375 36.125C15.2417 36.275 13.9167 36.35 12.4 36.35C5.78333 36.35 2.475 34.6833 2.475 31.35C2.475 27.9667 5.78333 26.275 12.4 26.275C13.9 26.275 15.2167 26.3583 16.35 26.525C17.5 26.675 18.5333 26.9333 19.45 27.3C20.3833 27.6667 21.0917 28.1917 21.575 28.875C22.0583 29.5417 22.3 30.3667 22.3 31.35ZM17.4 33.15C18.3667 32.7833 18.85 32.175 18.85 31.325C18.85 30.475 18.3667 29.8667 17.4 29.5C16.4333 29.1167 14.7667 28.925 12.4 28.925C10.0167 28.925 8.34167 29.1167 7.375 29.5C6.40833 29.8667 5.925 30.475 5.925 31.325C5.925 32.175 6.40833 32.7833 7.375 33.15C8.34167 33.5167 10.0167 33.7 12.4 33.7C14.7667 33.7 16.4333 33.5167 17.4 33.15ZM47.8809 13.25V17.7H50.4559V20.525H47.8809V25.675H44.5809V13.25H47.8809ZM41.6559 22.7L39.5309 24.75C38.6475 24.25 37.6392 23.4833 36.5059 22.45C35.3892 21.4 34.5309 20.3417 33.9309 19.275C33.3975 20.575 32.5809 21.8583 31.4809 23.125C30.3975 24.3917 29.3892 25.2917 28.4559 25.825L26.1809 23.95C27.9475 22.8167 29.3892 21.3 30.5059 19.4C31.6225 17.4833 32.1809 15.675 32.1809 13.975V13.225H35.5309V13.925C35.5309 15.425 36.0892 16.975 37.2059 18.575C38.3225 20.1583 39.8059 21.5333 41.6559 22.7ZM48.3059 31.35C48.3059 32.3167 48.0642 33.1333 47.5809 33.8C47.0975 34.4667 46.3892 34.9833 45.4559 35.35C44.5392 35.7167 43.5142 35.975 42.3809 36.125C41.2475 36.275 39.9225 36.35 38.4059 36.35C31.7892 36.35 28.4809 34.6833 28.4809 31.35C28.4809 27.9667 31.7892 26.275 38.4059 26.275C39.9059 26.275 41.2225 26.3583 42.3559 26.525C43.5059 26.675 44.5392 26.9333 45.4559 27.3C46.3892 27.6667 47.0975 28.1917 47.5809 28.875C48.0642 29.5417 48.3059 30.3667 48.3059 31.35ZM43.4059 33.15C44.3725 32.7833 44.8559 32.175 44.8559 31.325C44.8559 30.475 44.3725 29.8667 43.4059 29.5C42.4392 29.1167 40.7725 28.925 38.4059 28.925C36.0225 28.925 34.3475 29.1167 33.3809 29.5C32.4142 29.8667 31.9309 30.475 31.9309 31.325C31.9309 32.175 32.4142 32.7833 33.3809 33.15C34.3475 33.5167 36.0225 33.7 38.4059 33.7C40.7725 33.7 42.4392 33.5167 43.4059 33.15ZM74.2117 20.1C74.2117 21.35 73.9284 22.4667 73.3617 23.45C72.7951 24.4167 72.0284 25.1917 71.0617 25.775C70.0951 26.3417 69.0284 26.7667 67.8617 27.05C66.6951 27.3333 65.4534 27.475 64.1367 27.475C62.3534 27.475 60.7117 27.225 59.2117 26.725C57.7284 26.2083 56.4951 25.3833 55.5117 24.25C54.5284 23.1 54.0367 21.7167 54.0367 20.1C54.0367 18.5 54.5284 17.1333 55.5117 16C56.4951 14.85 57.7284 14.025 59.2117 13.525C60.6951 13.0083 62.3367 12.75 64.1367 12.75C65.1701 12.75 66.1617 12.8417 67.1117 13.025C68.0784 13.2083 68.9951 13.5 69.8617 13.9C70.7284 14.3 71.4784 14.7833 72.1117 15.35C72.7617 15.9 73.2701 16.5917 73.6367 17.425C74.0201 18.2417 74.2117 19.1333 74.2117 20.1ZM70.8367 20.1C70.8367 19.4 70.6867 18.775 70.3867 18.225C70.0867 17.6583 69.7034 17.2083 69.2367 16.875C68.7701 16.5417 68.2284 16.2667 67.6117 16.05C66.9951 15.8333 66.4034 15.6833 65.8367 15.6C65.2701 15.5167 64.7034 15.475 64.1367 15.475C63.4201 15.475 62.7034 15.55 61.9867 15.7C61.2701 15.8333 60.5534 16.0667 59.8367 16.4C59.1201 16.7167 58.5367 17.2 58.0867 17.85C57.6367 18.4833 57.4117 19.2333 57.4117 20.1C57.4117 20.9833 57.6284 21.75 58.0617 22.4C58.5117 23.0333 59.0951 23.5167 59.8117 23.85C60.5284 24.1667 61.2451 24.4 61.9617 24.55C62.6784 24.6833 63.4034 24.75 64.1367 24.75C64.8534 24.75 65.5701 24.6833 66.2867 24.55C67.0034 24.4 67.7201 24.1667 68.4367 23.85C69.1534 23.5167 69.7284 23.0333 70.1617 22.4C70.6117 21.75 70.8367 20.9833 70.8367 20.1ZM74.9867 32.425V35.15H53.2617V32.425H74.9867ZM79.8549 27.9V19.225H95.8799V16.35H79.8549V13.625H99.1799V21.95H83.1549V25.175H99.6049V27.9H79.8549ZM100.48 32.425V35.15H78.7549V32.425H87.9549V28.925H91.3049V32.425H100.48ZM112.968 16.475V13.75H125.518V15.55C125.518 19.3667 124.551 23.0167 122.618 26.5C120.701 29.9833 118.076 32.8417 114.743 35.075L112.418 33.1C115.218 31.4 117.535 29.0167 119.368 25.95C121.218 22.8667 122.126 19.7083 122.093 16.475H112.968ZM132.868 13.25V22.15H135.693V24.975H132.868V35.875H129.568V13.25H132.868ZM139.555 31.425V28.7H159.555V35.875H156.255V31.425H139.555ZM160.73 23.975V26.7H138.505V23.975H160.73ZM139.805 22.025V13.375H159.28V16.05H143.105V19.35H159.555V22.025H139.805ZM164.498 23.1C164.498 21.5167 165.123 20.2583 166.373 19.325C167.623 18.375 169.29 17.9 171.373 17.9C173.456 17.9 175.123 18.375 176.373 19.325C177.623 20.2583 178.248 21.5167 178.248 23.1C178.248 24.7167 177.615 26 176.348 26.95C175.098 27.8833 173.44 28.35 171.373 28.35C169.29 28.35 167.623 27.8833 166.373 26.95C165.123 26 164.498 24.7167 164.498 23.1ZM165.748 35.625V29H169.173V32.9H185.498V35.625H165.748ZM185.123 13.25V19.9H187.698V22.725H185.123V29.475H181.823V13.25H185.123ZM178.948 14.45V17.125H163.773V14.45H169.548V12.325H172.848V14.45H178.948ZM167.748 23.1C167.748 23.9167 168.056 24.575 168.673 25.075C169.306 25.575 170.206 25.825 171.373 25.825C172.556 25.825 173.456 25.575 174.073 25.075C174.706 24.575 175.023 23.9167 175.023 23.1C175.023 22.3167 174.706 21.675 174.073 21.175C173.44 20.6583 172.54 20.4 171.373 20.4C170.206 20.4 169.306 20.6583 168.673 21.175C168.056 21.675 167.748 22.3167 167.748 23.1ZM200.093 35.025V13.75H213.618V16.475H203.393V32.3H214.468V35.025H200.093ZM220.493 13.25V35.875H217.193V13.25H220.493ZM245.53 13.625V16.35H237.73C238.03 18.1833 238.98 19.9 240.58 21.5C242.197 23.1 244.272 24.4167 246.805 25.45L244.98 27.75C243.613 27.2667 241.963 26.2833 240.03 24.8C238.113 23.3 236.722 21.8167 235.855 20.35C235.055 21.8 233.697 23.2583 231.78 24.725C229.863 26.1917 228.188 27.2 226.755 27.75L224.98 25.45C227.497 24.4167 229.555 23.1 231.155 21.5C232.755 19.9 233.713 18.1833 234.03 16.35H226.205V13.625H245.53ZM246.73 32.425V35.15H225.005V32.425H246.73ZM251.598 34.775V13.75H254.898V32.05H266.023V34.775H251.598ZM271.748 13.25V35.875H268.448V13.25H271.748ZM292.81 32.05V34.775H276.51V32.05H292.81ZM284.235 12.725C286.468 12.725 288.26 13.4583 289.61 14.925C290.976 16.3917 291.66 18.25 291.66 20.5C291.66 22.7167 290.976 24.5667 289.61 26.05C288.26 27.5167 286.468 28.25 284.235 28.25C281.951 28.25 280.135 27.525 278.785 26.075C277.451 24.6083 276.785 22.75 276.785 20.5C276.785 18.25 277.46 16.3917 278.81 14.925C280.176 13.4583 281.985 12.725 284.235 12.725ZM287.285 16.95C286.585 15.9167 285.56 15.4 284.21 15.4C282.86 15.4 281.835 15.9167 281.135 16.95C280.435 17.9667 280.085 19.15 280.085 20.5C280.085 21.85 280.435 23.0333 281.135 24.05C281.835 25.0667 282.86 25.575 284.21 25.575C285.543 25.575 286.568 25.0667 287.285 24.05C288.001 23.0333 288.36 21.8583 288.36 20.525C288.36 19.1583 288.001 17.9667 287.285 16.95ZM297.76 13.25V35.875H294.46V13.25H297.76ZM322.905 32.975L320.455 34.475C319.822 33.725 319.113 32.6167 318.33 31.15C317.547 29.6667 316.922 28.225 316.455 26.825C316.105 28.1917 315.53 29.6917 314.73 31.325C313.947 32.9583 313.23 34.1583 312.58 34.925L310.005 33.575C311.522 31.6583 312.68 29.3833 313.48 26.75C314.297 24.1 314.705 21.525 314.705 19.025V13.475H317.98V19.025C317.98 21.175 318.43 23.55 319.33 26.15C320.23 28.7333 321.422 31.0083 322.905 32.975ZM327.88 13.375V35.75H324.58V23.9H320.455V21.175H324.58V13.375H327.88ZM333.505 13.25V35.875H330.205V13.25H333.505ZM347.355 20.375V17.65H350.48V13.375H353.78V35.75H350.48V29.275H346.405V26.55H350.48V20.375H347.355ZM337.155 16.475V13.75H346.98V14.6C346.98 22.9333 344.43 29.7417 339.33 35.025L336.78 33.3C339.063 31.1333 340.772 28.5333 341.905 25.5C343.055 22.4667 343.638 19.4583 343.655 16.475H337.155ZM359.505 13.25V35.875H356.205V13.25H359.505ZM363.486 16.475V13.75H376.036V15.55C376.036 19.3667 375.069 23.0167 373.136 26.5C371.219 29.9833 368.594 32.8417 365.261 35.075L362.936 33.1C365.736 31.4 368.052 29.0167 369.886 25.95C371.736 22.8667 372.644 19.7083 372.611 16.475H363.486ZM383.386 13.25V22.15H386.211V24.975H383.386V35.875H380.086V13.25H383.386ZM414.068 32.3V35.025H397.643V32.3H403.718V29.65C402.134 29.3833 400.876 28.7583 399.943 27.775C399.026 26.775 398.568 25.5667 398.568 24.15C398.568 22.5167 399.193 21.1833 400.443 20.15C401.693 19.1 403.334 18.575 405.368 18.575C407.401 18.575 409.043 19.1 410.293 20.15C411.543 21.1833 412.168 22.5167 412.168 24.15C412.168 25.55 411.701 26.75 410.768 27.75C409.834 28.7333 408.584 29.3667 407.018 29.65V32.3H414.068ZM418.893 13.25V21.9H421.593V24.725H418.893V35.875H415.593V13.25H418.893ZM413.168 15.125V17.8H397.543V15.125H403.443V12.7H406.743V15.125H413.168ZM401.743 24.15C401.743 25.0167 402.051 25.7417 402.668 26.325C403.301 26.9083 404.201 27.2 405.368 27.2C406.534 27.2 407.434 26.9083 408.068 26.325C408.701 25.7417 409.018 25.0167 409.018 24.15C409.018 23.3 408.701 22.5833 408.068 22C407.434 21.4167 406.534 21.125 405.368 21.125C404.218 21.125 403.326 21.4167 402.693 22C402.059 22.5833 401.743 23.3 401.743 24.15ZM424.743 35.025V22.425H433.618V16.475H424.743V13.75H436.918V25.15H428.043V32.3H438.168V35.025H424.743ZM445.643 13.25V35.875H442.343V29.875H437.818V27.15H442.343V20.7H438.118V17.975H442.343V13.25H445.643ZM1.5 52.1C1.5 50.5167 2.125 49.2583 3.375 48.325C4.625 47.375 6.29167 46.9 8.375 46.9C10.4583 46.9 12.125 47.375 13.375 48.325C14.625 49.2583 15.25 50.5167 15.25 52.1C15.25 53.7167 14.6167 55 13.35 55.95C12.1 56.8833 10.4417 57.35 8.375 57.35C6.29167 57.35 4.625 56.8833 3.375 55.95C2.125 55 1.5 53.7167 1.5 52.1ZM2.75 64.625V58H6.175V61.9H22.5V64.625H2.75ZM22.125 42.25V48.9H24.7V51.725H22.125V58.475H18.825V42.25H22.125ZM15.95 43.45V46.125H0.775V43.45H6.55V41.325H9.85V43.45H15.95ZM4.75 52.1C4.75 52.9167 5.05833 53.575 5.675 54.075C6.30833 54.575 7.20833 54.825 8.375 54.825C9.55833 54.825 10.4583 54.575 11.075 54.075C11.7083 53.575 12.025 52.9167 12.025 52.1C12.025 51.3167 11.7083 50.675 11.075 50.175C10.4417 49.6583 9.54167 49.4 8.375 49.4C7.20833 49.4 6.30833 49.6583 5.675 50.175C5.05833 50.675 4.75 51.3167 4.75 52.1ZM41.4701 47.55L41.9201 61.3H45.5201L45.9701 47.55H49.2201L48.7701 61.3H52.2951V64.025H35.8951V61.3H38.6701L38.2201 47.55H41.4701ZM57.8701 42.25V64.875H54.5701V53.85H50.3951V51.125H54.5701V42.25H57.8701ZM50.8701 42.75V45.475H36.4451V42.75H50.8701ZM62.476 64.025V51.425H69.051V45.475H62.476V42.75H72.351V54.15H65.776V61.3H73.051V64.025H62.476ZM79.076 42.375V64.75H75.776V53.675H73.076V50.85H75.776V42.375H79.076ZM84.501 42.25V64.875H81.201V42.25H84.501ZM95.976 41.975C97.076 41.975 98.051 42.1917 98.901 42.625C99.7676 43.0583 100.459 43.625 100.976 44.325C101.509 45.025 101.943 45.8667 102.276 46.85C102.626 47.8333 102.859 48.825 102.976 49.825C103.109 50.8083 103.176 51.8667 103.176 53C103.176 54.1167 103.109 55.175 102.976 56.175C102.859 57.175 102.626 58.175 102.276 59.175C101.943 60.1583 101.509 61 100.976 61.7C100.459 62.4167 99.7676 62.9917 98.901 63.425C98.051 63.875 97.076 64.1 95.976 64.1C94.876 64.1 93.8926 63.8833 93.026 63.45C92.176 63.0167 91.4843 62.45 90.951 61.75C90.4176 61.05 89.9843 60.2083 89.651 59.225C89.3176 58.225 89.0843 57.225 88.951 56.225C88.8176 55.2083 88.751 54.1333 88.751 53C88.751 51.5667 88.8593 50.2417 89.076 49.025C89.3093 47.7917 89.6843 46.625 90.201 45.525C90.7176 44.425 91.4676 43.5583 92.451 42.925C93.4343 42.2917 94.6093 41.975 95.976 41.975ZM95.951 44.675C95.1676 44.675 94.501 44.9333 93.951 45.45C93.4176 45.95 93.0176 46.6417 92.751 47.525C92.501 48.3917 92.3176 49.2667 92.201 50.15C92.101 51.0333 92.051 51.9833 92.051 53C92.051 53.8167 92.076 54.5833 92.126 55.3C92.1926 56 92.3093 56.7417 92.476 57.525C92.6593 58.2917 92.8843 58.95 93.151 59.5C93.4343 60.05 93.8093 60.5083 94.276 60.875C94.7593 61.225 95.3176 61.4 95.951 61.4C96.7343 61.4 97.3926 61.1417 97.926 60.625C98.476 60.1083 98.8843 59.4167 99.151 58.55C99.4176 57.6667 99.601 56.7833 99.701 55.9C99.8176 55 99.876 54.0333 99.876 53C99.876 51.9833 99.8176 51.0333 99.701 50.15C99.601 49.2667 99.4176 48.3917 99.151 47.525C98.8843 46.6417 98.476 45.95 97.926 45.45C97.376 44.9333 96.7176 44.675 95.951 44.675ZM109.751 42.25V64.875H106.451V42.25H109.751ZM115.738 55.3V42.625H134.513V45.35H119.038V52.575H134.788V55.3H115.738ZM135.988 61.425V64.15H114.263V61.425H135.988ZM140.856 56.9V48.225H156.881V45.35H140.856V42.625H160.181V50.95H144.156V54.175H160.606V56.9H140.856ZM161.481 61.425V64.15H139.756V61.425H148.956V57.925H152.306V61.425H161.481ZM194.694 59.375C194.927 59.8583 195.044 60.4167 195.044 61.05C195.044 61.6833 194.927 62.2333 194.694 62.7C194.477 63.1833 194.136 63.5833 193.669 63.9C193.202 64.2167 192.686 64.475 192.119 64.675C191.552 64.875 190.852 65.025 190.019 65.125C189.202 65.2417 188.402 65.3167 187.619 65.35C186.836 65.3833 185.919 65.4 184.869 65.4C183.836 65.4 182.919 65.375 182.119 65.325C181.319 65.2917 180.511 65.2167 179.694 65.1C178.894 65 178.202 64.8417 177.619 64.625C177.036 64.425 176.511 64.1667 176.044 63.85C175.594 63.5333 175.252 63.1417 175.019 62.675C174.786 62.2083 174.669 61.6667 174.669 61.05C174.669 60.4333 174.786 59.8917 175.019 59.425C175.252 58.9417 175.594 58.5417 176.044 58.225C176.511 57.8917 177.036 57.625 177.619 57.425C178.202 57.2083 178.894 57.0417 179.694 56.925C180.511 56.8083 181.319 56.7333 182.119 56.7C182.919 56.65 183.836 56.625 184.869 56.625C185.919 56.625 186.836 56.65 187.619 56.7C188.402 56.7333 189.202 56.8 190.019 56.9C190.852 57 191.552 57.1583 192.119 57.375C192.686 57.575 193.202 57.8333 193.669 58.15C194.136 58.4667 194.477 58.875 194.694 59.375ZM191.494 61.025C191.494 60.275 191.036 59.8 190.119 59.6C189.202 59.3833 187.452 59.275 184.869 59.275C182.269 59.275 180.511 59.3833 179.594 59.6C178.677 59.8 178.219 60.275 178.219 61.025C178.219 61.775 178.669 62.25 179.569 62.45C180.486 62.65 182.252 62.75 184.869 62.75C187.452 62.75 189.202 62.6417 190.119 62.425C191.036 62.225 191.494 61.7583 191.494 61.025ZM195.969 52.525V55.25H173.744V52.525H195.969ZM175.044 50.825V42.375H194.519V45.05H178.344V48.15H194.794V50.825H175.044ZM220.462 60.425C220.462 61.3917 220.221 62.2 219.737 62.85C219.254 63.5167 218.546 64.025 217.612 64.375C216.679 64.7417 215.646 64.9917 214.512 65.125C213.396 65.275 212.079 65.35 210.562 65.35C209.062 65.35 207.737 65.2667 206.587 65.1C205.454 64.95 204.421 64.6917 203.487 64.325C202.571 63.975 201.862 63.4667 201.362 62.8C200.879 62.15 200.637 61.3583 200.637 60.425C200.637 59.475 200.879 58.6667 201.362 58C201.862 57.3333 202.571 56.8167 203.487 56.45C204.421 56.0833 205.454 55.825 206.587 55.675C207.737 55.5083 209.062 55.425 210.562 55.425C212.079 55.425 213.396 55.5 214.512 55.65C215.646 55.8 216.679 56.0583 217.612 56.425C218.546 56.775 219.254 57.2833 219.737 57.95C220.221 58.6167 220.462 59.4417 220.462 60.425ZM214.312 52.175L212.237 54.25C211.404 53.9 210.371 53.2167 209.137 52.2C207.904 51.1667 206.987 50.1917 206.387 49.275C205.771 50.4917 204.887 51.6417 203.737 52.725C202.604 53.8083 201.579 54.6 200.662 55.1L198.412 53.25C200.096 52.3167 201.504 51.1083 202.637 49.625C203.787 48.125 204.429 46.6333 204.562 45.15H199.412V42.5H213.837V45.15H207.962C208.112 46.4 208.771 47.6417 209.937 48.875C211.104 50.1083 212.562 51.2083 214.312 52.175ZM217.012 60.4C217.012 59.55 216.529 58.95 215.562 58.6C214.612 58.25 212.946 58.075 210.562 58.075C208.162 58.075 206.479 58.25 205.512 58.6C204.562 58.95 204.087 59.55 204.087 60.4C204.087 61.25 204.562 61.8417 205.512 62.175C206.479 62.525 208.162 62.7 210.562 62.7C212.946 62.7 214.612 62.525 215.562 62.175C216.529 61.825 217.012 61.2333 217.012 60.4ZM220.112 42.25V46.7H222.687V49.525H220.112V54.925H216.812V42.25H220.112ZM230.068 42.775L229.643 57.95H226.843L226.418 42.775H230.068ZM230.093 60.275V63.925H226.418V60.275H230.093Z" fill="#86BDF0"/>
<path d="M14.22 94.94H12.42V89.75H10.935V102.56H12.42V96.365H14.22V94.94ZM6.36 90.125L4.845 90.065C4.83 95.45 3.495 99.89 0.93 100.295V101.795C2.925 101.645 4.47 99.98 5.385 97.19L8.685 101.765L9.885 100.91L5.85 95.45C6.18 93.905 6.345 92.12 6.36 90.125ZM27.2987 92.57V89.75H25.8137V97.385H27.2987V93.995H29.0987V92.57H27.2987ZM16.1537 92.825V96.8H20.7587C22.5737 96.8 24.1037 96.575 24.8837 96.23V95.015C24.0587 95.375 22.5887 95.585 20.8487 95.585H17.6237V94.01H23.5937V90.065H16.1237V91.28H22.1237V92.825H16.1537ZM22.0037 97.79C18.9437 97.79 16.5137 98.39 16.5137 100.175C16.5137 101.945 18.9437 102.56 22.0037 102.56C25.0787 102.56 27.4937 101.945 27.4937 100.175C27.4937 98.39 25.0787 97.79 22.0037 97.79ZM22.0037 101.375C19.8137 101.375 18.0887 101.045 18.0887 100.175C18.0887 99.305 19.8137 98.975 22.0037 98.975C24.1937 98.975 25.9187 99.305 25.9187 100.175C25.9187 101.045 24.1937 101.375 22.0037 101.375ZM36.8074 94.055L42.2824 97.85L43.0924 96.665L37.4524 92.87C37.8724 92.015 38.1724 91.07 38.3524 90.08L36.8224 89.81C36.1624 93.395 33.6124 96.395 30.8374 96.395V97.805C33.1924 97.805 35.3674 96.32 36.8074 94.055ZM30.5824 100.55V101.945H43.3774V100.55H30.5824ZM56.0361 89.75V92.105H53.8161V93.455H56.0361V96.815H57.5211V89.75H56.0361ZM45.9861 92.765V96.65H50.4111C52.2261 96.65 53.7561 96.425 54.5361 96.08V94.88C53.7111 95.24 52.2411 95.45 50.5011 95.45H47.4561V93.935H52.9761V90.065H45.9561V91.265H51.5061V92.765H45.9861ZM56.0061 98.705H48.0861V97.52H46.6161V102.395H57.4761V97.52H56.0061V98.705ZM48.0861 101.21V99.875H56.0061V101.21H48.0861ZM70.7348 98.66H72.2798V90.2H61.1198V91.595H70.7348V98.66ZM66.6398 100.55V94.835H65.1098V100.55H60.3398V101.945H73.1348V100.55H66.6398ZM91.4677 92.045V89.75H89.9827V96.17H91.4677V93.41H93.2677V92.045H91.4677ZM87.8077 89.975H86.3527V91.565H81.7777V89.975H80.3227V95.705H87.8077V89.975ZM81.7777 94.505V92.75H86.3527V94.505H81.7777ZM82.2427 100.175H91.4677V96.875H80.7427V98.03H89.9977V99.08H80.7727V102.395H91.7827V101.24H82.2427V100.175ZM106.346 92.165V89.75H104.861V96.305H106.346V93.53H108.146V92.165H106.346ZM95.2014 92.48V95.96H99.8064C101.621 95.96 103.151 95.735 103.931 95.39V94.28C103.106 94.64 101.636 94.85 99.8964 94.85H96.6714V93.545H102.641V90.065H95.1714V91.175H101.186V92.48H95.2014ZM97.1064 100.22H106.346V97.01H95.6214V98.12H104.891V99.17H95.6514V102.395H106.661V101.285H97.1064V100.22ZM118.285 90.965H114.685V89.525H113.185V90.965H109.585V92.18H118.285V90.965ZM121.225 93.26V89.75H119.74V99.35H121.225V94.685H123.025V93.26H121.225ZM113.935 98.15C116.065 98.15 117.715 97.205 117.715 95.525C117.715 93.845 116.065 92.9 113.935 92.9C111.805 92.9 110.14 93.845 110.14 95.525C110.14 97.205 111.805 98.15 113.935 98.15ZM113.935 94.04C115.375 94.04 116.29 94.67 116.29 95.525C116.29 96.395 115.375 97.01 113.935 97.01C112.495 97.01 111.58 96.395 111.58 95.525C111.58 94.67 112.495 94.04 113.935 94.04ZM112.015 98.885H110.515V102.395H121.57V101.075H112.015V98.885ZM135.553 94.61C138.658 94.61 141.208 93.89 141.208 92.135C141.208 90.395 138.658 89.675 135.553 89.675C132.448 89.675 129.898 90.395 129.898 92.135C129.898 93.89 132.448 94.61 135.553 94.61ZM135.553 93.425C133.318 93.425 131.473 93.035 131.473 92.135C131.473 91.25 133.318 90.845 135.553 90.845C137.788 90.845 139.633 91.25 139.633 92.135C139.633 93.035 137.788 93.425 135.553 93.425ZM129.163 96.815H141.958V95.615H129.163V96.815ZM130.048 102.41H141.058V98.06H130.048V102.41ZM131.533 101.225V99.245H139.588V101.225H131.533ZM157.437 92.585H155.637V89.75H154.152V97.4H155.637V93.995H157.437V92.585ZM148.032 96.995C150.447 96.995 151.992 95.48 151.992 93.44C151.992 91.4 150.447 89.885 148.032 89.885C145.602 89.885 144.057 91.4 144.057 93.44C144.057 95.48 145.602 96.995 148.032 96.995ZM148.032 91.13C149.487 91.13 150.507 92.015 150.507 93.44C150.507 94.865 149.487 95.75 148.032 95.75C146.562 95.75 145.542 94.865 145.542 93.44C145.542 92.015 146.562 91.13 148.032 91.13ZM144.957 99.395H154.137V102.56H155.637V98.105H144.957V99.395ZM169.825 89.75V102.56H171.235V89.75H169.825ZM166.735 95.09H165.025C164.875 91.595 163.855 90.05 162.07 90.05C160.135 90.05 159.085 91.865 159.085 96.005C159.085 100.145 160.135 101.96 162.07 101.96C163.93 101.96 164.95 100.295 165.04 96.5H166.735V102.335H168.13V89.825H166.735V95.09ZM162.07 100.61C161.005 100.61 160.495 99.155 160.495 96.005C160.495 92.855 161.005 91.4 162.07 91.4C163.135 91.4 163.63 92.855 163.63 96.005C163.63 99.155 163.135 100.61 162.07 100.61ZM190.048 92.375V89.75H188.563V96.71H190.048V93.8H191.848V92.375H190.048ZM186.388 90.065H178.903V96.095H186.388V90.065ZM184.918 94.835H180.373V91.325H184.918V94.835ZM185.743 98.66H190.213V97.415H179.308V98.66H184.183C183.553 100.205 181.438 101.105 179.158 101.105V102.395C181.198 102.395 183.223 101.795 184.513 100.61L190.138 102.56L190.558 101.285L185.338 99.605C185.503 99.32 185.653 99.005 185.743 98.66ZM197.727 94.52L201.717 96.425L202.302 95.24L198.387 93.44C198.537 93.08 198.627 92.72 198.672 92.33H201.852V91.055H198.642V89.51H197.127V91.055H193.902V92.33H197.157C196.932 93.74 195.627 94.835 193.647 95.12V96.425C195.432 96.215 196.842 95.525 197.727 94.52ZM203.907 89.75V99.935H200.022V101.165H203.907V102.56H205.392V89.75H203.907ZM202.827 98.3V97.025C201.912 97.385 200.352 97.52 198.627 97.52H193.332V98.795H196.902V102.56H198.387V98.795H198.642C200.397 98.795 201.912 98.645 202.827 98.3ZM223.335 102.56H224.82V89.75H223.335V102.56ZM213.6 101.795H220.86V90.215H213.6V101.795ZM215.085 100.4V91.61H219.375V100.4H215.085ZM238.213 102.575L239.698 102.56V89.75H238.213V102.575ZM228.478 101.795H233.713C234.943 101.795 236.248 101.555 237.028 101.165V99.8C236.248 100.175 234.928 100.43 233.713 100.43H229.993V90.14H228.478V101.795ZM256.017 94.94H254.217V89.75H252.732V102.56H254.217V96.365H256.017V94.94ZM243.222 101.795H250.347V90.215H243.222V101.795ZM244.707 91.595H248.862V100.415H244.707V91.595ZM263.891 96.71C267.326 96.71 269.591 95.42 269.591 93.29C269.591 91.16 267.326 89.87 263.891 89.87C260.456 89.87 258.191 91.16 258.191 93.29C258.191 95.42 260.456 96.71 263.891 96.71ZM263.891 91.205C266.321 91.205 268.046 91.955 268.046 93.29C268.046 94.625 266.321 95.375 263.891 95.375C261.461 95.375 259.736 94.625 259.736 93.29C259.736 91.955 261.461 91.205 263.891 91.205ZM270.296 97.895H257.501V99.275H263.126V102.86H264.641V99.275H270.296V97.895ZM278.605 94.055L284.08 97.85L284.89 96.665L279.25 92.87C279.67 92.015 279.97 91.07 280.15 90.08L278.62 89.81C277.96 93.395 275.41 96.395 272.635 96.395V97.805C274.99 97.805 277.165 96.32 278.605 94.055ZM272.38 100.55V101.945H285.175V100.55H272.38ZM300.653 94.82H298.883V89.75H297.398V102.56H298.883V96.245H300.653V94.82ZM292.193 97.895C294.068 97.58 295.373 96.065 295.373 93.995C295.373 91.655 293.708 90.02 291.458 90.02C289.193 90.02 287.573 91.655 287.573 93.995C287.573 96.065 288.848 97.58 290.723 97.895V100.4H287.258V101.795H292.148C293.903 101.795 295.418 101.63 296.333 101.255V99.86C295.433 100.25 293.888 100.4 292.193 100.4V97.895ZM289.028 93.995C289.028 92.495 289.958 91.355 291.458 91.355C292.943 91.355 293.918 92.495 293.918 93.995C293.918 95.48 292.943 96.62 291.458 96.62C289.958 96.62 289.028 95.48 289.028 93.995ZM317.261 102.575L318.746 102.56V89.75H317.261V102.575ZM307.541 101.795H312.716C313.946 101.795 315.296 101.555 316.076 101.18V99.815C315.296 100.19 313.976 100.43 312.761 100.43H309.041V91.58H315.071V90.215H307.541V101.795ZM327.97 94.685L333.43 97.865L334.15 96.68L328.615 93.485C328.855 92.915 329.035 92.285 329.14 91.595H333.76V90.23H322.36V91.595H327.565C326.995 94.655 324.82 96.185 322.045 96.41V97.79C324.49 97.64 326.665 96.605 327.97 94.685ZM321.67 100.55V101.945H334.465V100.55H321.67ZM347.018 102.575L348.503 102.56V89.75H347.018V102.575ZM337.283 101.795H342.518C343.748 101.795 345.053 101.555 345.833 101.165V99.8C345.053 100.175 343.733 100.43 342.518 100.43H338.798V90.14H337.283V101.795ZM365.295 95.045L369.015 97.505L369.78 96.38L365.865 93.83C366.015 93.365 366.105 92.87 366.15 92.36H369.54V91.085H366.135V89.525H364.635V91.085H361.185V92.36H364.65C364.44 94.505 363.075 95.975 361.05 96.29V97.61C362.895 97.43 364.41 96.455 365.295 95.045ZM372.69 89.75H371.205V99.305H372.69V89.75ZM363.33 101.075V98.675H361.83V102.395H373.035V101.075H363.33ZM385.949 95.9H387.494V90.05H376.454V91.445H385.949V95.9ZM388.409 96.965H375.614V98.375H381.164V102.86H382.694V98.375H388.409V96.965ZM391.408 93.995H402.523V92.855H392.893V91.04H402.373V89.9H391.408V93.995ZM390.493 96.245H403.288V95.09H390.493V96.245ZM391.378 102.41H402.628V101.3H392.833V100.4H402.403V97.34H391.348V98.45H400.948V99.35H391.378V102.41ZM415.841 102.56H417.341V89.75H415.841V102.56ZM409.796 101.96C412.061 101.96 413.666 100.07 413.666 96.005C413.666 91.94 412.061 90.05 409.796 90.05C407.516 90.05 405.911 91.94 405.911 96.005C405.911 100.07 407.516 101.96 409.796 101.96ZM409.796 100.595C408.431 100.595 407.396 99.26 407.396 96.005C407.396 92.765 408.431 91.415 409.796 91.415C411.131 91.415 412.181 92.765 412.181 96.005C412.181 99.26 411.131 100.595 409.796 100.595ZM11.385 109.75V114.925H9.105V116.32H11.385V122.56H12.885V109.75H11.385ZM7.965 111.565H9.39V110.215H1.095V111.565H2.505V120.445H1.02V121.795H5.82C7.65 121.795 9.21 121.495 10.05 121.06V119.695C9.48 119.98 8.79 120.175 7.965 120.31V111.565ZM3.975 120.445V111.565H6.51V120.43C6.3 120.445 6.075 120.445 5.835 120.445H3.975ZM26.6087 109.75V122.56H28.0187V109.75H26.6087ZM23.5187 115.015H21.9287V116.425H23.5187V122.335H24.9137V109.825H23.5187V115.015ZM17.4887 120.505V116.575H21.1787V110.215H16.0937V111.505H19.7837V115.285H16.0937V121.795H18.5537C20.1437 121.795 21.4937 121.585 22.3337 121.21V119.905C21.3887 120.31 20.1737 120.505 18.6287 120.505H17.4887ZM41.0524 122.56H42.5524V109.75H41.0524V122.56ZM35.0074 121.96C37.2724 121.96 38.8774 120.07 38.8774 116.005C38.8774 111.94 37.2724 110.05 35.0074 110.05C32.7274 110.05 31.1224 111.94 31.1224 116.005C31.1224 120.07 32.7274 121.96 35.0074 121.96ZM35.0074 120.595C33.6424 120.595 32.6074 119.26 32.6074 116.005C32.6074 112.765 33.6424 111.415 35.0074 111.415C36.3424 111.415 37.3924 112.765 37.3924 116.005C37.3924 119.26 36.3424 120.595 35.0074 120.595ZM46.3011 117.775H57.5661V116.395H47.8161V111.595H57.4161V110.215H46.3011V117.775ZM45.4611 121.945H58.2561V120.55H45.4611V121.945ZM77.0989 115.69H67.3639V114.19H76.9039V110.125H65.8939V111.43H75.4339V112.93H65.8939V116.995H77.0989V115.69ZM77.7889 118.51H64.9939V119.86H70.6189V122.86H72.1489V119.86H77.7889V118.51ZM92.0227 117.07H82.2127V114.955H91.6627V113.65H82.2127V111.55H91.8277V110.215H80.7277V118.405H92.0227V117.07ZM79.8727 120.58V121.945H92.6677V120.58H79.8727ZM105.656 109.75V122.56H107.066V109.75H105.656ZM102.566 115.09H100.856C100.706 111.595 99.6864 110.05 97.9014 110.05C95.9664 110.05 94.9164 111.865 94.9164 116.005C94.9164 120.145 95.9664 121.96 97.9014 121.96C99.7614 121.96 100.781 120.295 100.871 116.5H102.566V122.335H103.961V109.825H102.566V115.09ZM97.9014 120.61C96.8364 120.61 96.3264 119.155 96.3264 116.005C96.3264 112.855 96.8364 111.4 97.9014 111.4C98.9664 111.4 99.4614 112.855 99.4614 116.005C99.4614 119.155 98.9664 120.61 97.9014 120.61ZM115.199 114.325H126.314V113.125H116.684V111.1H126.164V109.9H115.199V114.325ZM114.284 116.77H127.079V115.57H114.284V116.77ZM120.674 122.605C123.734 122.605 126.314 122.005 126.314 120.25C126.314 118.495 123.734 117.91 120.674 117.91C117.614 117.91 115.034 118.495 115.034 120.25C115.034 122.005 117.614 122.605 120.674 122.605ZM120.674 121.435C118.589 121.435 116.594 121.135 116.594 120.25C116.594 119.38 118.589 119.08 120.674 119.08C122.759 119.08 124.754 119.38 124.754 120.25C124.754 121.135 122.759 121.435 120.674 121.435ZM140.758 112.195V109.75H139.273V116.83H140.758V113.605H142.558V112.195H140.758ZM133.648 113.965L137.353 116.29L138.088 115.18L134.188 112.78C134.323 112.33 134.413 111.85 134.443 111.355H137.683V110.08H129.508V111.355H132.958C132.763 113.395 131.458 114.955 129.343 115.24V116.575C131.263 116.38 132.778 115.39 133.648 113.965ZM135.463 117.25C132.403 117.25 129.973 117.985 129.973 119.905C129.973 121.825 132.403 122.56 135.463 122.56C138.538 122.56 140.953 121.825 140.953 119.905C140.953 117.985 138.538 117.25 135.463 117.25ZM135.463 121.33C133.288 121.33 131.563 120.895 131.563 119.905C131.563 118.93 133.288 118.48 135.463 118.48C137.653 118.48 139.363 118.93 139.363 119.905C139.363 120.895 137.653 121.33 135.463 121.33ZM144.597 118.915H145.737L146.127 110.23H144.222L144.597 118.915ZM145.167 122.485C145.797 122.485 146.277 122.005 146.277 121.375C146.277 120.76 145.797 120.28 145.167 120.28C144.537 120.28 144.057 120.76 144.057 121.375C144.057 122.005 144.537 122.485 145.167 122.485Z" fill="#666666"/>
</svg>
